<svg width="151" height="42" viewBox="0 0 151 42" fill="none" xmlns="http://www.w3.org/2000/svg">
<path d="M66.65 33L58.04 23.46V33H55.31V12.09H58.04V21.78L66.68 12.09H70.13L60.65 22.56L70.22 33H66.65ZM72.249 24.72C72.249 23.04 72.589 21.57 73.269 20.31C73.949 19.03 74.879 18.04 76.059 17.34C77.259 16.64 78.589 16.29 80.049 16.29C81.489 16.29 82.739 16.6 83.799 17.22C84.859 17.84 85.649 18.62 86.169 19.56V16.56H88.929V33H86.169V29.94C85.629 30.9 84.819 31.7 83.739 32.34C82.679 32.96 81.439 33.27 80.019 33.27C78.559 33.27 77.239 32.91 76.059 32.19C74.879 31.47 73.949 30.46 73.269 29.16C72.589 27.86 72.249 26.38 72.249 24.72ZM86.169 24.75C86.169 23.51 85.919 22.43 85.419 21.51C84.919 20.59 84.239 19.89 83.379 19.41C82.539 18.91 81.609 18.66 80.589 18.66C79.569 18.66 78.639 18.9 77.799 19.38C76.959 19.86 76.289 20.56 75.789 21.48C75.289 22.4 75.039 23.48 75.039 24.72C75.039 25.98 75.289 27.08 75.789 28.02C76.289 28.94 76.959 29.65 77.799 30.15C78.639 30.63 79.569 30.87 80.589 30.87C81.609 30.87 82.539 30.63 83.379 30.15C84.239 29.65 84.919 28.94 85.419 28.02C85.919 27.08 86.169 25.99 86.169 24.75ZM94.9524 13.89C94.4324 13.89 93.9924 13.71 93.6324 13.35C93.2724 12.99 93.0924 12.55 93.0924 12.03C93.0924 11.51 93.2724 11.07 93.6324 10.71C93.9924 10.35 94.4324 10.17 94.9524 10.17C95.4524 10.17 95.8724 10.35 96.2124 10.71C96.5724 11.07 96.7524 11.51 96.7524 12.03C96.7524 12.55 96.5724 12.99 96.2124 13.35C95.8724 13.71 95.4524 13.89 94.9524 13.89ZM96.2724 16.56V33H93.5424V16.56H96.2724ZM102.965 30.75H111.035V33H99.8452V30.75L107.825 18.78H99.9052V16.56H110.975V18.78L102.965 30.75ZM129.578 24.15C129.578 24.67 129.548 25.22 129.488 25.8H116.348C116.448 27.42 116.998 28.69 117.998 29.61C119.018 30.51 120.248 30.96 121.688 30.96C122.868 30.96 123.848 30.69 124.628 30.15C125.428 29.59 125.988 28.85 126.308 27.93H129.248C128.808 29.51 127.928 30.8 126.608 31.8C125.288 32.78 123.648 33.27 121.688 33.27C120.128 33.27 118.728 32.92 117.488 32.22C116.268 31.52 115.308 30.53 114.608 29.25C113.908 27.95 113.558 26.45 113.558 24.75C113.558 23.05 113.898 21.56 114.578 20.28C115.258 19 116.208 18.02 117.428 17.34C118.668 16.64 120.088 16.29 121.688 16.29C123.248 16.29 124.628 16.63 125.828 17.31C127.028 17.99 127.948 18.93 128.588 20.13C129.248 21.31 129.578 22.65 129.578 24.15ZM126.758 23.58C126.758 22.54 126.528 21.65 126.068 20.91C125.608 20.15 124.978 19.58 124.178 19.2C123.398 18.8 122.528 18.6 121.568 18.6C120.188 18.6 119.008 19.04 118.028 19.92C117.068 20.8 116.518 22.02 116.378 23.58H126.758ZM135.911 19.23C136.391 18.29 137.071 17.56 137.951 17.04C138.851 16.52 139.941 16.26 141.221 16.26V19.08H140.501C137.441 19.08 135.911 20.74 135.911 24.06V33H133.181V16.56H135.911V19.23Z" fill="white"/>
<path d="M18.55 41.75C13.2833 41.35 8.875 39.25 5.325 35.45C1.775 31.65 0 27.1333 0 21.9C0 16.6333 1.775 12.1083 5.325 8.325C8.875 4.54167 13.2833 2.45 18.55 2.05V7.15C14.7167 7.51667 11.5 9.1 8.9 11.9C6.3 14.7 5 18.0333 5 21.9C5 25.7667 6.3 29.1083 8.9 31.925C11.5 34.7417 14.7167 36.3167 18.55 36.65V41.75ZM21.55 41.75V36.65C25.0833 36.3833 28.0917 34.9917 30.575 32.475C33.0583 29.9583 34.5 26.9333 34.9 23.4H39.9C39.5333 28.3667 37.625 32.5833 34.175 36.05C30.725 39.5167 26.5167 41.4167 21.55 41.75ZM34.9 20.4C34.5333 16.8667 33.1 13.8417 30.6 11.325C28.1 8.80833 25.0833 7.4 21.55 7.1V2C26.4833 2.36667 30.6833 4.28333 34.15 7.75C37.6167 11.2167 39.5333 15.4333 39.9 20.4H34.9Z" fill="white"/>
</svg>
